<svg id="visual" viewBox="0 0 960 300" width="960" height="300" xmlns="http://www.w3.org/2000/svg" xmlns:xlink="http://www.w3.org/1999/xlink" version="1.1"><rect width="960" height="300" fill="#101011"></rect><g><g transform="translate(264 235)"><path d="M62.6 -17.7C71.1 5.9 61.1 38.1 39.9 53C18.8 68 -13.6 65.6 -36.9 49C-60.3 32.5 -74.7 1.8 -67 -20.6C-59.4 -43 -29.7 -57.1 -1.3 -56.6C27 -56.2 54.1 -41.3 62.6 -17.7Z" fill="none" stroke="#37b25f" stroke-width="20"></path></g><g transform="translate(694 207)"><path d="M48.4 -14.3C55.8 6.9 49.9 33.8 33.2 46C16.5 58.2 -11.1 55.7 -29.2 42.2C-47.2 28.6 -55.7 3.9 -49.2 -16.1C-42.8 -36 -21.4 -51.2 -0.4 -51C20.5 -50.9 41.1 -35.5 48.4 -14.3Z" fill="none" stroke="#37b25f" stroke-width="20"></path></g><g transform="translate(386 77)"><path d="M43.2 -13.6C49.8 6.2 44.6 30.3 28.3 43.1C11.9 56 -15.7 57.8 -33.9 44.9C-52.1 32.1 -61 4.7 -53.8 -15.9C-46.6 -36.5 -23.3 -50.4 -2.5 -49.6C18.3 -48.8 36.6 -33.3 43.2 -13.6Z" fill="none" stroke="#37b25f" stroke-width="20"></path></g><g transform="translate(136 9)"><path d="M35.3 -11.7C40.1 3.2 34.4 21.3 21.6 30.8C8.8 40.4 -11 41.3 -23.1 32.4C-35.2 23.4 -39.6 4.6 -34.5 -10.8C-29.4 -26.3 -14.7 -38.2 0.3 -38.3C15.3 -38.4 30.6 -26.7 35.3 -11.7Z" fill="none" stroke="#37b25f" stroke-width="20"></path></g><g transform="translate(769 23)"><path d="M37.2 -13.2C41.7 1.9 34.5 19.7 21.4 29.1C8.4 38.5 -10.6 39.5 -23.8 30.5C-37.1 21.4 -44.6 2.2 -39.7 -13.4C-34.8 -29 -17.4 -41 -0.5 -40.8C16.3 -40.6 32.6 -28.3 37.2 -13.2Z" fill="none" stroke="#37b25f" stroke-width="20"></path></g><g transform="translate(894 244)"><path d="M59.7 -19.6C67.5 4.6 57.1 34.5 36.9 48.6C16.7 62.8 -13.3 61.3 -34.4 46.2C-55.5 31.2 -67.7 2.6 -60.4 -20.7C-53.2 -44.1 -26.6 -62.3 -0.3 -62.2C26 -62.1 51.9 -43.7 59.7 -19.6Z" fill="none" stroke="#37b25f" stroke-width="20"></path></g><g transform="translate(14 160)"><path d="M43.9 -15C50.2 5.1 44 28.6 28.2 40.4C12.5 52.2 -12.8 52.3 -29.8 40.2C-46.7 28.1 -55.3 3.7 -48.9 -16.6C-42.6 -36.8 -21.3 -52.9 -1.2 -52.5C18.8 -52.1 37.6 -35.2 43.9 -15Z" fill="none" stroke="#37b25f" stroke-width="20"></path></g><g transform="translate(573 45)"><path d="M42.7 -13.7C48.4 3.7 41.3 25.4 24.7 38.6C8 51.9 -18.3 56.6 -33.4 45.7C-48.5 34.8 -52.4 8.3 -45 -11.5C-37.5 -31.3 -18.8 -44.3 -0.1 -44.3C18.5 -44.2 37 -31.1 42.7 -13.7Z" fill="none" stroke="#37b25f" stroke-width="20"></path></g></g></svg>