<svg id="visual" viewBox="0 0 960 300" width="960" height="300" xmlns="http://www.w3.org/2000/svg" xmlns:xlink="http://www.w3.org/1999/xlink" version="1.1"><rect x="0" y="0" width="960" height="300" fill="#30a9cd"></rect><path d="M0 174L192 180L384 175L576 189L768 186L960 194L960 301L768 301L576 301L384 301L192 301L0 301Z" fill="#d2f8f5"></path><path d="M0 187L192 190L384 212L576 192L768 208L960 188L960 301L768 301L576 301L384 301L192 301L0 301Z" fill="#aaecf1"></path><path d="M0 204L192 202L384 206L576 204L768 216L960 208L960 301L768 301L576 301L384 301L192 301L0 301Z" fill="#80dff3"></path><path d="M0 221L192 213L384 231L576 233L768 231L960 222L960 301L768 301L576 301L384 301L192 301L0 301Z" fill="#50d0f9"></path><path d="M0 240L192 238L384 238L576 245L768 239L960 237L960 301L768 301L576 301L384 301L192 301L0 301Z" fill="#00bfff"></path><path d="M0 239L192 253L384 255L576 253L768 253L960 241L960 301L768 301L576 301L384 301L192 301L0 301Z" fill="#00adff"></path><path d="M0 257L192 267L384 268L576 262L768 253L960 260L960 301L768 301L576 301L384 301L192 301L0 301Z" fill="#0098ff"></path><path d="M0 267L192 273L384 267L576 274L768 272L960 278L960 301L768 301L576 301L384 301L192 301L0 301Z" fill="#0081ff"></path><path d="M0 280L192 283L384 281L576 287L768 279L960 279L960 301L768 301L576 301L384 301L192 301L0 301Z" fill="#0066ff"></path></svg>