<svg id="visual" viewBox="0 0 960 300" width="960" height="300" xmlns="http://www.w3.org/2000/svg" xmlns:xlink="http://www.w3.org/1999/xlink" version="1.1"><rect x="0" y="0" width="960" height="300" fill="#30a9cd"></rect><path d="M0 196L137 180L274 201L411 205L549 199L686 223L823 222L960 189L960 301L823 301L686 301L549 301L411 301L274 301L137 301L0 301Z" fill="#d2f8f5"></path><path d="M0 203L137 210L274 227L411 227L549 212L686 221L823 215L960 235L960 301L823 301L686 301L549 301L411 301L274 301L137 301L0 301Z" fill="#80dff3"></path><path d="M0 226L137 248L274 229L411 228L549 245L686 243L823 223L960 246L960 301L823 301L686 301L549 301L411 301L274 301L137 301L0 301Z" fill="#00bfff"></path><path d="M0 271L137 252L274 242L411 262L549 263L686 240L823 243L960 248L960 301L823 301L686 301L549 301L411 301L274 301L137 301L0 301Z" fill="#0098ff"></path><path d="M0 274L137 278L274 278L411 279L549 275L686 283L823 264L960 274L960 301L823 301L686 301L549 301L411 301L274 301L137 301L0 301Z" fill="#0066ff"></path></svg>