<svg id="visual" viewBox="0 0 960 300" width="960" height="300" xmlns="http://www.w3.org/2000/svg" xmlns:xlink="http://www.w3.org/1999/xlink" version="1.1"><path d="M0 25L26.7 26C53.3 27 106.7 29 160 31C213.3 33 266.7 35 320 35C373.3 35 426.7 33 480 33C533.3 33 586.7 35 640 34.5C693.3 34 746.7 31 800 30C853.3 29 906.7 30 933.3 30.5L960 31L960 0L933.3 0C906.7 0 853.3 0 800 0C746.7 0 693.3 0 640 0C586.7 0 533.3 0 480 0C426.7 0 373.3 0 320 0C266.7 0 213.3 0 160 0C106.7 0 53.3 0 26.7 0L0 0Z" fill="#00ff5a"></path><path d="M0 40L26.7 40.5C53.3 41 106.7 42 160 45C213.3 48 266.7 53 320 55C373.3 57 426.7 56 480 56.5C533.3 57 586.7 59 640 58.5C693.3 58 746.7 55 800 52C853.3 49 906.7 46 933.3 44.5L960 43L960 29L933.3 28.5C906.7 28 853.3 27 800 28C746.7 29 693.3 32 640 32.5C586.7 33 533.3 31 480 31C426.7 31 373.3 33 320 33C266.7 33 213.3 31 160 29C106.7 27 53.3 25 26.7 24L0 23Z" fill="#26e451"></path><path d="M0 67L26.7 66.5C53.3 66 106.7 65 160 66.5C213.3 68 266.7 72 320 74.5C373.3 77 426.7 78 480 79C533.3 80 586.7 81 640 79C693.3 77 746.7 72 800 69.5C853.3 67 906.7 67 933.3 67L960 67L960 41L933.3 42.5C906.7 44 853.3 47 800 50C746.7 53 693.3 56 640 56.5C586.7 57 533.3 55 480 54.5C426.7 54 373.3 55 320 53C266.7 51 213.3 46 160 43C106.7 40 53.3 39 26.7 38.5L0 38Z" fill="#32ca49"></path><path d="M0 94L26.7 92C53.3 90 106.7 86 160 89C213.3 92 266.7 102 320 107.5C373.3 113 426.7 114 480 112C533.3 110 586.7 105 640 103C693.3 101 746.7 102 800 102C853.3 102 906.7 101 933.3 100.5L960 100L960 65L933.3 65C906.7 65 853.3 65 800 67.5C746.7 70 693.3 75 640 77C586.7 79 533.3 78 480 77C426.7 76 373.3 75 320 72.5C266.7 70 213.3 66 160 64.5C106.7 63 53.3 64 26.7 64.5L0 65Z" fill="#37b142"></path><path d="M0 169L26.7 169C53.3 169 106.7 169 160 173C213.3 177 266.7 185 320 188C373.3 191 426.7 189 480 186.5C533.3 184 586.7 181 640 175C693.3 169 746.7 160 800 161C853.3 162 906.7 173 933.3 178.5L960 184L960 98L933.3 98.5C906.7 99 853.3 100 800 100C746.7 100 693.3 99 640 101C586.7 103 533.3 108 480 110C426.7 112 373.3 111 320 105.5C266.7 100 213.3 90 160 87C106.7 84 53.3 88 26.7 90L0 92Z" fill="#38983b"></path><path d="M0 187L26.7 187C53.3 187 106.7 187 160 190C213.3 193 266.7 199 320 201.5C373.3 204 426.7 203 480 200C533.3 197 586.7 192 640 187C693.3 182 746.7 177 800 178.5C853.3 180 906.7 188 933.3 192L960 196L960 182L933.3 176.5C906.7 171 853.3 160 800 159C746.7 158 693.3 167 640 173C586.7 179 533.3 182 480 184.5C426.7 187 373.3 189 320 186C266.7 183 213.3 175 160 171C106.7 167 53.3 167 26.7 167L0 167Z" fill="#368034"></path><path d="M0 241L26.7 237C53.3 233 106.7 225 160 224C213.3 223 266.7 229 320 232C373.3 235 426.7 235 480 233C533.3 231 586.7 227 640 224.5C693.3 222 746.7 221 800 221C853.3 221 906.7 222 933.3 222.5L960 223L960 194L933.3 190C906.7 186 853.3 178 800 176.5C746.7 175 693.3 180 640 185C586.7 190 533.3 195 480 198C426.7 201 373.3 202 320 199.5C266.7 197 213.3 191 160 188C106.7 185 53.3 185 26.7 185L0 185Z" fill="#33692e"></path><path d="M0 283L26.7 281.5C53.3 280 106.7 277 160 276.5C213.3 276 266.7 278 320 279.5C373.3 281 426.7 282 480 282C533.3 282 586.7 281 640 282C693.3 283 746.7 286 800 286.5C853.3 287 906.7 285 933.3 284L960 283L960 221L933.3 220.5C906.7 220 853.3 219 800 219C746.7 219 693.3 220 640 222.5C586.7 225 533.3 229 480 231C426.7 233 373.3 233 320 230C266.7 227 213.3 221 160 222C106.7 223 53.3 231 26.7 235L0 239Z" fill="#2e5228"></path><path d="M0 301L26.7 301C53.3 301 106.7 301 160 301C213.3 301 266.7 301 320 301C373.3 301 426.7 301 480 301C533.3 301 586.7 301 640 301C693.3 301 746.7 301 800 301C853.3 301 906.7 301 933.3 301L960 301L960 281L933.3 282C906.7 283 853.3 285 800 284.5C746.7 284 693.3 281 640 280C586.7 279 533.3 280 480 280C426.7 280 373.3 279 320 277.5C266.7 276 213.3 274 160 274.5C106.7 275 53.3 278 26.7 279.5L0 281Z" fill="#273d22"></path></svg>